<?xml version="1.0" standalone="no"?>
<!DOCTYPE svg PUBLIC "-//W3C//DTD SVG 20010904//EN"
 "http://www.w3.org/TR/2001/REC-SVG-20010904/DTD/svg10.dtd">
<svg version="1.0" xmlns="http://www.w3.org/2000/svg"
 width="116.000000pt" height="116.000000pt" viewBox="0 0 116.000000 116.000000"
 preserveAspectRatio="xMidYMid meet">
<metadata>
Created by potrace 1.11, written by Peter Selinger 2001-2013
</metadata>
<g transform="translate(0.000000,116.000000) scale(0.100000,-0.100000)"
fill="#000000" stroke="none">
<path d="M105 1116 c-18 -28 -15 -157 5 -181 11 -13 80 -15 461 -15 529 0 490
-9 485 114 -2 42 -9 82 -16 91 -11 13 -72 15 -466 15 l-454 0 -15 -24z"/>
<path d="M260 833 c-25 -10 -30 -25 -30 -105 0 -115 -28 -108 420 -108 219 0
381 4 390 10 11 7 15 30 15 95 0 74 -3 89 -19 101 -16 11 -85 14 -390 13 -204
0 -378 -3 -386 -6z"/>
<path d="M454 526 c-16 -12 -19 -27 -19 -96 0 -69 3 -84 19 -96 28 -20 553
-21 580 -1 26 19 25 175 -1 195 -26 19 -552 17 -579 -2z"/>
<path d="M582 238 c-8 -8 -12 -45 -12 -100 0 -76 2 -89 19 -98 12 -6 104 -10
230 -10 250 0 241 -4 241 106 0 121 16 114 -243 114 -160 0 -226 -3 -235 -12z"/>
</g>
</svg>
